<?xml version="1.0" standalone="no"?>
<!DOCTYPE svg PUBLIC "-//W3C//DTD SVG 20010904//EN"
 "http://www.w3.org/TR/2001/REC-SVG-20010904/DTD/svg10.dtd">
<svg version="1.0" xmlns="http://www.w3.org/2000/svg"
 width="200.000000pt" height="200.000000pt" viewBox="0 0 200.000000 200.000000"
 preserveAspectRatio="xMidYMid meet">

<g transform="translate(0.000000,200.000000) scale(0.100000,-0.100000)"
fill="#000000" stroke="none">
<path d="M0 1000 l0 -360 1000 0 1000 0 0 360 0 360 -1000 0 -1000 0 0 -360z
m1940 -5 l0 -305 -934 0 c-842 0 -934 2 -940 16 -8 20 -8 558 0 578 6 14 98
16 940 16 l934 0 0 -305z"/>
<path d="M1410 1164 c-79 -34 -108 -94 -71 -145 12 -16 17 -29 11 -29 -6 0
-10 -30 -10 -75 0 -81 2 -84 57 -64 23 8 50 6 107 -5 150 -31 294 -14 344 40
31 35 29 84 -4 118 -15 14 -29 26 -33 26 -3 0 -5 34 -3 75 2 41 2 75 -1 75 -2
0 -23 -6 -45 -14 -35 -13 -47 -13 -88 0 -63 19 -218 18 -264 -2z m273 -64 c49
-19 134 -69 93 -56 -10 4 -62 11 -115 17 -170 19 -194 24 -199 37 -12 36 127
37 221 2z m-261 -135 c26 -7 103 -19 170 -25 68 -6 125 -13 127 -15 12 -13
-13 -34 -46 -40 -77 -13 -223 27 -288 79 -25 19 -22 19 37 1z"/>
<path d="M130 1156 c0 -2 23 -18 50 -36 l51 -33 -3 -85 -3 -86 -55 -33 -55
-33 205 0 205 0 -55 33 -55 33 -3 86 -3 86 58 36 58 35 -197 1 c-109 0 -198
-2 -198 -4z"/>
<path d="M570 1156 c0 -2 23 -18 50 -36 l50 -32 0 -83 0 -83 -57 -36 -58 -35
250 -1 c274 0 337 9 405 54 76 50 74 141 -4 201 -66 51 -90 54 -373 55 -145 0
-263 -2 -263 -4z m426 -61 c62 -26 81 -117 33 -161 -16 -14 -37 -18 -97 -19
l-77 0 -3 84 c-2 46 -1 90 2 98 7 18 97 17 142 -2z"/>
</g>
</svg>
